<svg width="47" height="47" viewBox="0 0 47 47" fill="none" xmlns="http://www.w3.org/2000/svg">
<path d="M19.7464 32.7163L10.6818 23.6496L13.7026 20.6287L19.7464 26.6704L31.8297 14.585L34.8526 17.6079L19.7464 32.712V32.7163Z" fill="#09DAC2"/>
<path fill-rule="evenodd" clip-rule="evenodd" d="M0 23.5C0 10.5216 10.5216 0 23.5 0C36.4784 0 47 10.5216 47 23.5C47 36.4784 36.4784 47 23.5 47C10.5216 47 0 36.4784 0 23.5ZM23.5 42.7273C20.975 42.7273 18.4748 42.2299 16.142 41.2637C13.8093 40.2974 11.6897 38.8812 9.90427 37.0957C8.11885 35.3103 6.70258 33.1907 5.73632 30.858C4.77006 28.5252 4.27273 26.025 4.27273 23.5C4.27273 20.975 4.77006 18.4748 5.73632 16.142C6.70258 13.8093 8.11885 11.6897 9.90427 9.90427C11.6897 8.11885 13.8093 6.70258 16.142 5.73632C18.4748 4.77006 20.975 4.27273 23.5 4.27273C28.5994 4.27273 33.4899 6.29845 37.0957 9.90427C40.7015 13.5101 42.7273 18.4006 42.7273 23.5C42.7273 28.5994 40.7015 33.4899 37.0957 37.0957C33.4899 40.7015 28.5994 42.7273 23.5 42.7273Z" fill="#09DAC2"/>
</svg>
